# xmcd
#
# Track frame offsets:
#	150
#	17900
#	34895
#	50625
#	64790
#	89420
#	114972
#	138822
#	176657
#	198870
#
# Disc length: 3016 seconds
#
# Revision: 4
# Processed by: cddbd v1.5.1PL2 Copyright (c) Steve Scherf et al.
# Submitted via: EasyCDDAExtractor 8.2.3.1
#
DISCID=840bc60a
DTITLE=Various Artist - Rave Anthems 2 CD1:Sorted
DYEAR=2002
DGENRE=Rave
TTITLE0=Moby - Go
TTITLE1=The Future Sound of London - Papua New Guinea
TTITLE2=Shamen - Move Any Mountain (Progen 91 Mix)
TTITLE3=Bizarre Inc - I'm Gonna Get You (feat. Angie Brown)
TTITLE4=Altern 8 - Activ8 (Hardcore Holocaust Mix)
TTITLE5=Reckless - Reckless Karnage (Less Recked Mix)
TTITLE6=Urban Hype - The Feeling
TTITLE7=Sono Lakota - Ice and Acid
TTITLE8=Adonis - No Way Back
TTITLE9=Mike Dunn - Magic Feet (Edge Of Motion Mix)
EXTD=YEAR: 2002 ID3G:  68
EXTT0=
EXTT1=
EXTT2=
EXTT3=
EXTT4=
EXTT5=
EXTT6=
EXTT7=
EXTT8=
EXTT9=
PLAYORDER=
